<svg width="100" height="221" viewBox="0 0 100 221" fill="none" xmlns="http://www.w3.org/2000/svg">
<path d="M99.1109 171.065C99.1109 198.388 76.878 220.621 49.5554 220.621C22.2327 220.621 -0.00012207 198.388 -0.00012207 171.065C-0.00012207 143.743 22.2327 121.51 49.5554 121.51C76.878 121.51 99.1109 143.743 99.1109 171.065ZM3.57003 171.065C3.57003 196.421 24.1999 217.051 49.5554 217.051C74.9108 217.051 95.5407 196.421 95.5407 171.065C95.5407 145.71 74.9108 125.08 49.5554 125.08C24.1999 125.08 3.57003 145.71 3.57003 171.065Z" fill="white"/>
<path d="M99.1135 49.9295C99.1135 50.9183 98.312 51.7094 97.3336 51.7094C96.3552 51.7094 95.5537 50.9079 95.5537 49.9295C95.5537 24.5741 74.9238 3.94418 49.5684 3.94418C24.213 3.94418 3.58305 24.5741 3.58305 49.9295C3.58305 50.9183 2.78156 51.7094 1.80315 51.7094C0.82474 51.7094 0.0233154 50.9079 0.0233154 49.9295C0.0233154 22.6069 22.2561 0.374023 49.5788 0.374023C76.9015 0.374023 99.1343 22.6069 99.1343 49.9295H99.1135Z" fill="white"/>
<path d="M99.1729 49.1697V168.765C99.1729 169.754 98.3715 170.545 97.3931 170.545C96.4146 170.545 95.6132 169.743 95.6132 168.765V49.1697C95.6132 48.1809 96.4146 47.3899 97.3931 47.3899C98.3715 47.3899 99.1729 48.1913 99.1729 49.1697Z" fill="white"/>
<path d="M3.63774 48.9095V168.505C3.63774 169.494 2.83625 170.285 1.85784 170.285C0.879427 170.285 0.0780029 169.483 0.0780029 168.505V48.9095C0.0780029 47.9207 0.879427 47.1296 1.85784 47.1296C2.83625 47.1296 3.63774 47.9311 3.63774 48.9095Z" fill="white"/>
</svg>
