<svg width="110" height="50" viewBox="0 0 110 50" fill="none" xmlns="http://www.w3.org/2000/svg">
<path d="M84.9487 1.00835C98.4546 1.00835 109.445 11.9983 109.445 25.5042C109.445 39.0101 98.4546 50 84.9487 50C71.4428 50 60.4529 39.0101 60.4529 25.5042C60.4529 11.9983 71.4428 1.00835 84.9487 1.00835ZM84.9487 48.2352C97.4822 48.2352 107.68 38.0376 107.68 25.5042C107.68 12.9707 97.4822 2.77312 84.9487 2.77312C72.4152 2.77312 62.2176 12.9707 62.2176 25.5042C62.2176 38.0376 72.4152 48.2352 84.9487 48.2352Z" fill="white"/>
<path d="M25.07 1.00694C25.5588 1.00694 25.9499 1.40309 25.9499 1.88673C25.9499 2.37037 25.5537 2.76655 25.07 2.76655C12.5366 2.76655 2.33898 12.9641 2.33898 25.4976C2.33898 38.0311 12.5366 48.2287 25.07 48.2287C25.5588 48.2287 25.9499 48.6248 25.9499 49.1085C25.9499 49.5921 25.5537 49.9883 25.07 49.9883C11.5641 49.9883 0.574219 38.9984 0.574219 25.4925C0.574219 11.9866 11.5641 0.996635 25.07 0.996635V1.00694Z" fill="white"/>
<path d="M24.5656 48.2021L83.6828 48.2021C84.1716 48.2021 84.5626 48.5982 84.5626 49.0819C84.5626 49.5655 84.1665 49.9617 83.6828 49.9617L24.5656 49.9617C24.0768 49.9617 23.6858 49.5655 23.6858 49.0819C23.6858 48.5982 24.0819 48.2021 24.5656 48.2021Z" fill="white"/>
<path d="M24.6945 0.977932L83.8117 0.977932C84.3005 0.977932 84.6915 1.37409 84.6915 1.85772C84.6915 2.34136 84.2954 2.73755 83.8117 2.73755L24.6945 2.73755C24.2057 2.73755 23.8147 2.34136 23.8147 1.85772C23.8147 1.37409 24.2109 0.977932 24.6945 0.977932Z" fill="white"/>
</svg>